<?xml version="1.0" encoding="UTF-8"?>
<svg width="168px" height="33px" viewBox="0 0 168 33" version="1.1" xmlns="http://www.w3.org/2000/svg" xmlns:xlink="http://www.w3.org/1999/xlink">
    <!-- Generator: Sketch 42 (36781) - http://www.bohemiancoding.com/sketch -->
    <title>Group 10</title>
    <desc>Created with Sketch.</desc>
    <defs>
        <polygon id="path-1" points="13.5982475 32.2224945 0.0400008266 32.2224945 0.0400008266 0.112999265 13.5982475 0.112999265 13.5982475 32.2224945"></polygon>
        <polygon id="path-3" points="0 32.232051 42.7724896 32.232051 42.7724896 0.12251899 0 0.12251899"></polygon>
    </defs>
    <g id="COD-/-FINAL" stroke="none" stroke-width="1" fill="none" fill-rule="evenodd">
        <g id="homepage" transform="translate(-250.000000, -2845.000000)">
            <g id="cod_footer-copy" transform="translate(0.000000, 2785.000000)">
                <g id="Group-10" transform="translate(250.000000, 60.000000)">
                    <g id="Navbar-Copy" transform="translate(0.674699, 0.000000)">
                        <g id="Page-1" transform="translate(0.000000, 0.278788)">
                            <g id="Group-3" transform="translate(0.000000, 5.890468)" fill="#D32F2F">
                                <path d="M3.84197648,13.512987 C4.99934696,13.512987 5.93216227,13.8325165 6.64029841,14.4701054 C7.34818657,15.1083068 7.70231664,15.9410684 7.70231664,16.9687577 C7.70231664,18.0100466 7.34818657,18.8586131 6.64029841,19.5149473 C5.93216227,20.171159 4.99934696,20.4992649 3.84197648,20.4992649 C2.70890905,20.4992649 1.78526938,20.1679735 1.07130546,19.5057584 C0.357093554,18.8430532 -1.23995123e-05,17.9975496 -1.23995123e-05,16.9687577 C-1.23995123e-05,15.9533203 0.357093554,15.1236217 1.07130546,14.4790493 C1.78526938,13.8355795 2.70890905,13.512987 3.84197648,13.512987 M3.84197648,0.0741239892 C4.99934696,0.0741239892 5.92608651,0.393285959 6.62182314,1.03111982 C7.31731179,1.66919873 7.66549009,2.50220534 7.66549009,3.53038471 C7.66549009,4.58331291 7.3144599,5.43800539 6.6126475,6.09446214 C5.91071111,6.75116393 4.98731943,7.07926979 3.84197648,7.07926979 C2.70890905,7.07926979 1.78526938,6.74797844 1.07130546,6.08527322 C0.357093554,5.42281304 -1.23995123e-05,4.5709385 -1.23995123e-05,3.53038471 C-1.23995123e-05,2.50220534 0.353745686,1.66919873 1.06225382,1.03111982 C1.77014197,0.393285959 2.69663353,0.0741239892 3.84197648,0.0741239892" id="Fill-1"></path>
                            </g>
                            <g id="Group-6" transform="translate(12.895493, 0.009556)">
                                <mask id="mask-2" fill="white">
                                    <use xlink:href="#path-1"></use>
                                </mask>
                                <g id="Clip-5"></g>
                                <path d="M6.83976937,16.1480397 C7.78820806,16.7598995 8.44339829,17.4730826 8.80558805,18.285261 C9.16740582,19.0969493 9.34856269,20.494891 9.34856269,22.4809238 L9.34856269,25.2092992 C9.34856269,26.462791 9.45209862,27.2497305 9.66003844,27.5729356 C9.86760627,27.8954055 10.2609188,28.1134893 10.840472,28.227677 C10.9790986,28.2639427 11.1870384,28.3008209 11.4639195,28.3373315 C12.8865155,28.5438986 13.5982475,29.2187332 13.5982475,30.3615903 C13.5982475,30.9215021 13.3914237,31.3709017 12.9776519,31.7118721 C12.5641282,32.0521073 12.0122259,32.2225312 11.323061,32.2225312 C10.4452996,32.2225312 9.59593296,32.0806543 8.77483726,31.7976354 C7.95349356,31.5140039 7.27338031,31.1263538 6.73449751,30.633705 C6.1449007,30.1036878 5.72840108,29.4197868 5.48413069,28.5828596 C5.23948831,27.7448297 5.11722912,26.3098873 5.11722912,24.2779098 L5.11722912,22.0769787 C5.11722912,19.8477457 4.07641406,18.5654619 1.9957759,18.2312301 C1.90786336,18.2067263 1.84524582,18.1941068 1.8076753,18.1941068 C1.20592697,18.0943764 0.760536486,17.8818059 0.472247825,17.556518 C0.183959164,17.2312301 0.0400008266,16.7608797 0.0400008266,16.1480397 C0.0400008266,15.6101813 0.162136023,15.1850404 0.406654405,14.8727395 C0.650924797,14.5603161 1.04287338,14.3351262 1.58200417,14.1974148 C1.81995082,14.1232909 2.16490525,14.0431634 2.6161235,13.9569101 C4.28336192,13.6482847 5.11722912,12.4265254 5.11722912,10.2912644 L5.11722912,8.08837295 C5.11722912,6.1964347 5.21134142,4.87077922 5.39907004,4.10993629 C5.58741863,3.34970595 5.90720205,2.68516295 6.3585443,2.11593972 C6.88490359,1.485457 7.59018785,0.994155844 8.47390109,0.641668709 C9.35773833,0.289304092 10.332588,0.112999265 11.3979541,0.112999265 C12.0625679,0.112999265 12.595251,0.2835457 12.9966232,0.624025974 C13.3974994,0.964751286 13.5982475,1.41366087 13.5982475,1.97112227 C13.5982475,3.13566528 12.8364215,3.83561627 11.3130174,4.07073021 C11.1741429,4.08334967 11.0734588,4.09572409 11.0104693,4.10797599 C10.3809461,4.20672629 9.94634318,4.4319162 9.70715659,4.78379074 C9.46796999,5.13566528 9.34856269,5.93473413 9.34856269,7.18111982 L9.34856269,9.90238912 C9.34856269,11.7613698 9.16083407,13.1243935 8.78661679,13.9919505 C8.41239951,14.859385 7.76316105,15.5780814 6.83976937,16.1480397" id="Fill-4" fill="#D32F2F" mask="url(#mask-2)"></path>
                            </g>
                            <path d="M32.6794974,5.13034795 C32.6794974,4.93738054 32.7475707,4.77087724 32.8835934,4.63083803 C33.019988,4.49104386 33.1804377,4.420963 33.3655624,4.420963 C33.8031412,4.420963 34.3359483,4.65987503 34.9634876,5.13757657 C35.5915229,5.6151556 36.2651884,6.29832149 36.985352,7.18609409 C38.0848168,8.54715756 38.9117403,9.98013967 39.4664945,11.4860206 C40.0210006,12.9914114 40.2983777,14.5600221 40.2983777,16.1908723 C40.2983777,17.9783019 39.9625989,19.6963857 39.2914133,21.3464715 C38.6198558,22.9966797 37.622439,24.5509556 36.299287,26.008074 C35.7347372,26.6254472 35.1947385,27.101801 34.6791668,27.4345626 C34.163223,27.7678143 33.7157246,27.933705 33.3362996,27.933705 C33.1609705,27.933705 33.0078365,27.8688924 32.8764017,27.7387773 C32.7450908,27.6082945 32.6794974,27.446692 32.6794974,27.2529895 C32.6794974,27.0412766 32.9169481,26.5493629 33.3922214,25.7768807 C33.7408957,25.2070448 34.012197,24.7439231 34.2061254,24.3869027 C34.9908905,22.9389733 35.5582922,21.5635751 35.9069665,20.2608307 C36.2557647,18.9577187 36.4303499,17.6020461 36.4303499,16.1908723 C36.4303499,14.9267214 36.2901114,13.7009189 36.0090144,12.5138324 C35.7275455,11.3267459 35.2965385,10.1444376 34.7148773,8.9667851 C34.3948459,8.32980887 33.9759904,7.58428081 33.4573188,6.73020093 C32.9386472,5.87587601 32.6794974,5.34267336 32.6794974,5.13034795" id="Fill-7" fill="#D32F2F"></path>
                            <mask id="mask-4" fill="white">
                                <use xlink:href="#path-3"></use>
                            </mask>
                            <g id="Clip-18"></g>
                            <path d="M102.684205,10.0443519 L105.66604,10.0443519 L105.66604,7.83459936 L102.684205,7.83459936 L102.684205,10.0443519 Z M101.244374,21.8096055 L102.684205,21.5068611 L102.684205,14.7363391 L101.091116,14.4335947 L101.091116,12.6576819 L105.66604,12.6576819 L105.66604,21.5068611 L107.095704,21.8096055 L107.095704,23.5754717 L101.244374,23.5754717 L101.244374,21.8096055 Z" id="Fill-17" fill="#000000" mask="url(#mask-4)"></path>
                            <path d="M117.59509,16.4113085 L115.593561,16.4113085 L115.277125,15.0491424 C115.072781,14.8876623 114.815739,14.7531365 114.505999,14.6454423 C114.196135,14.5379931 113.854033,14.4840848 113.479816,14.4840848 C112.95544,14.4840848 112.540181,14.6001103 112.233913,14.8321612 C111.927521,15.0642122 111.774387,15.3553173 111.774387,15.7049865 C111.774387,16.0346851 111.920701,16.3088826 112.213577,16.527334 C112.506082,16.7460304 113.091711,16.9394879 113.969968,17.1075839 C115.338379,17.3766356 116.352535,17.7718819 117.013057,18.2930777 C117.673331,18.8145185 118.00353,19.5327248 118.00353,20.4473291 C118.00353,21.4296864 117.576367,22.2318182 116.72204,22.8539696 C115.867466,23.476121 114.742458,23.7871968 113.347017,23.7871968 C112.495914,23.7871968 111.714621,23.6644327 111.003385,23.4189047 C110.291901,23.1733766 109.660518,22.8221147 109.109112,22.3646288 L109.078361,19.9125337 L111.161603,19.9125337 L111.570167,21.3353467 C111.747108,21.4833497 111.988774,21.5926366 112.295166,21.6632075 C112.601558,21.7337785 112.921466,21.7691865 113.255136,21.7691865 C113.860977,21.7691865 114.322115,21.6617373 114.638798,21.4463489 C114.955358,21.2310831 115.113575,20.9385077 115.113575,20.5685004 C115.113575,20.2456628 114.953622,19.9665646 114.633714,19.7309605 C114.313559,19.4956016 113.72483,19.2870742 112.867032,19.1053786 C111.566695,18.8431879 110.584654,18.4545577 109.920908,17.9399779 C109.257162,17.4253982 108.925227,16.7240995 108.925227,15.8362044 C108.925227,14.9213551 109.306388,14.1325778 110.069082,13.4699951 C110.831404,12.8075349 111.917353,12.476121 113.326558,12.476121 C114.184356,12.476121 114.996152,12.5905538 115.76207,12.8191742 C116.527988,13.0479172 117.12862,13.340615 117.564463,13.6970228 L117.59509,16.4113085 Z" id="Fill-19" fill="#000000" mask="url(#mask-4)"></path>
                            <path d="M128.860233,16.4113085 L126.858703,16.4113085 L126.542268,15.0491424 C126.337924,14.8876623 126.080882,14.7531365 125.771142,14.6454423 C125.461278,14.5379931 125.119176,14.4840848 124.744959,14.4840848 C124.220583,14.4840848 123.805324,14.6001103 123.499056,14.8321612 C123.192664,15.0642122 123.03953,15.3553173 123.03953,15.7049865 C123.03953,16.0346851 123.185844,16.3088826 123.47872,16.527334 C123.771225,16.7460304 124.356854,16.9394879 125.235111,17.1075839 C126.603521,17.3766356 127.617678,17.7718819 128.2782,18.2930777 C128.938474,18.8145185 129.268673,19.5327248 129.268673,20.4473291 C129.268673,21.4296864 128.841509,22.2318182 127.987183,22.8539696 C127.132609,23.476121 126.007601,23.7871968 124.61216,23.7871968 C123.761057,23.7871968 122.979764,23.6644327 122.268528,23.4189047 C121.557044,23.1733766 120.925661,22.8221147 120.374254,22.3646288 L120.343504,19.9125337 L122.426746,19.9125337 L122.83531,21.3353467 C123.012251,21.4833497 123.253917,21.5926366 123.560309,21.6632075 C123.866701,21.7337785 124.186609,21.7691865 124.520279,21.7691865 C125.12612,21.7691865 125.587257,21.6617373 125.903941,21.4463489 C126.220501,21.2310831 126.378718,20.9385077 126.378718,20.5685004 C126.378718,20.2456628 126.218765,19.9665646 125.898857,19.7309605 C125.578702,19.4956016 124.989973,19.2870742 124.132175,19.1053786 C122.831838,18.8431879 121.849796,18.4545577 121.186051,17.9399779 C120.522305,17.4253982 120.19037,16.7240995 120.19037,15.8362044 C120.19037,14.9213551 120.571531,14.1325778 121.334225,13.4699951 C122.096547,12.8075349 123.182496,12.476121 124.591701,12.476121 C125.449499,12.476121 126.261295,12.5905538 127.027213,12.8191742 C127.793131,13.0479172 128.393763,13.340615 128.829606,13.6970228 L128.860233,16.4113085 Z" id="Fill-20" fill="#000000" mask="url(#mask-4)"></path>
                            <path d="M136.132596,14.7262558 C135.58119,14.7262558 135.145347,14.9347831 134.82544,15.3518378 C134.505408,15.7690149 134.308008,16.3171649 134.233239,16.9965327 L134.263866,17.0470105 L137.919614,17.0470105 L137.919614,16.7846974 C137.919614,16.1589929 137.771564,15.6596055 137.475463,15.2862901 C137.179239,14.9128522 136.731617,14.7262558 136.132596,14.7262558 M136.398194,23.7872703 C134.805104,23.7872703 133.531923,23.2827371 132.578896,22.2736707 C131.625622,21.2647268 131.149232,19.9833007 131.149232,18.4293923 L131.149232,18.0256922 C131.149232,16.4046435 131.600079,15.069309 132.502267,14.0199338 C133.404208,12.9705587 134.6144,12.4493629 136.132596,12.4559789 C137.623514,12.4559789 138.78076,12.8998652 139.604584,13.7878829 C140.428283,14.675778 140.840195,15.8765866 140.840195,17.3900637 L140.840195,18.9943274 L134.243407,18.9943274 L134.223071,19.0549743 C134.277381,19.7748959 134.52066,20.3667851 134.953031,20.830887 C135.385402,21.294989 135.972519,21.5270399 136.714629,21.5270399 C137.375027,21.5270399 137.922962,21.4614923 138.358805,21.330397 C138.7944,21.1991791 139.271037,20.9922445 139.788344,20.7097158 L140.595057,22.5260598 C140.139003,22.8827126 139.548414,23.1817814 138.823414,23.4240015 C138.098415,23.666099 137.289843,23.7872703 136.398194,23.7872703" id="Fill-21" fill="#000000" mask="url(#mask-4)"></path>
                            <path d="M150.481771,22.1930287 C150.127765,22.7043004 149.69031,23.0978314 149.16953,23.3736217 C148.648751,23.6494119 148.054814,23.7872458 147.387596,23.7872458 C146.223406,23.7872458 145.311174,23.4189537 144.6509,22.6823695 C143.990378,21.9457853 143.660303,20.8006003 143.660303,19.2465695 L143.660303,14.7362779 L142.445151,14.4335334 L142.445151,12.6577432 L143.660303,12.6577432 L146.642138,12.6577432 L146.642138,19.2669076 C146.642138,20.0607082 146.776424,20.6306665 147.045494,20.9771502 C147.314315,21.3236339 147.714447,21.4967532 148.245395,21.4967532 C148.715212,21.4967532 149.121792,21.4210365 149.465755,21.2698481 C149.809345,21.1184146 150.090318,20.9014335 150.308301,20.6189047 L150.308301,14.7362779 L149.001145,14.4335334 L149.001145,12.6577432 L150.308301,12.6577432 L153.290012,12.6577432 L153.290012,21.5067998 L154.627796,21.8095442 L154.627796,23.5754104 L150.675699,23.5754104 L150.481771,22.1930287 Z" id="Fill-22" fill="#000000" mask="url(#mask-4)"></path>
                            <path d="M156.528703,21.8095687 L157.958367,21.5068243 L157.958367,14.7363024 L156.375569,14.433558 L156.375569,12.6577677 L160.736105,12.6577677 L160.86878,14.2519848 C161.127434,13.6869272 161.460981,13.2464715 161.869545,12.9301274 C162.277985,12.6140284 162.75115,12.4559789 163.289041,12.4559789 C163.445523,12.4559789 163.61056,12.4677407 163.784277,12.4912644 C163.957871,12.5149106 164.102325,12.5434575 164.21826,12.5770277 L163.901701,15.2610512 L162.676257,15.230789 C162.240414,15.230789 161.879712,15.3149596 161.593904,15.4830556 C161.307847,15.6512742 161.089863,15.8900637 160.940201,16.1994242 L160.940201,21.5068243 L162.369865,21.8095687 L162.369865,23.5754349 L156.528703,23.5754349 L156.528703,21.8095687 Z" id="Fill-23" fill="#000000" mask="url(#mask-4)"></path>
                        </g>
                    </g>
                    <g id="codaisseur-logo-white-copy" fill-rule="nonzero" fill="#FFFFFF">
                        <g id="Group">
                            <g id="White" transform="translate(50.602410, 7.333333)">
                                <g id="Group">
                                    <g transform="translate(0.377546, 0.491762)" id="Shape">
                                        <path d="M12.5097746,6.12779468 L10.2546686,6.12779468 L9.94285806,4.14332573 C9.64492817,3.85019518 9.26901408,3.6181749 8.815242,3.44776172 C8.36134373,3.27734854 7.82618038,3.19201774 7.20962576,3.19201774 C5.89323244,3.19201774 4.87994272,3.66264132 4.16988279,4.60364005 C3.45969667,5.54476299 3.1047298,6.77218504 3.1047298,8.28615463 L3.1047298,8.80782763 C3.1047298,10.321673 3.45805622,11.5528213 4.16470908,12.5006515 C4.87136194,13.4486058 5.86900434,13.9224588 7.15776249,13.9224588 C7.75349608,13.9224588 8.29913304,13.8372522 8.79454717,13.6667148 C9.28983511,13.4963016 9.67268953,13.2644056 9.94298424,12.9710266 L10.2547948,10.9864335 L12.5099007,10.9864335 L12.5099007,13.9325196 C11.9001603,14.6282079 11.1224636,15.1822991 10.1768106,15.5947934 C9.23103149,16.0074119 8.17269265,16.213597 7.0019203,16.213597 C4.97180759,16.213597 3.30902819,15.521635 2.01358207,14.13709 C0.717883589,12.7526692 0.0702867215,10.9762484 0.0702867215,8.80757921 L0.0702867215,8.3062763 C0.0702867215,6.14456274 0.7146027,4.36789354 2.00323466,2.97676553 C3.29186662,1.58551331 4.9580531,0.889949303 7.0019203,0.889949303 C8.17269265,0.889949303 9.22926486,1.09961217 10.1716369,1.5190621 C11.1137566,1.93838783 11.8932199,2.4926033 12.5099007,3.18133587 L12.5099007,6.12779468 L12.5097746,6.12779468 Z"></path>
                                        <path d="M14.4858788,10.3627858 C14.4858788,8.71243599 14.955172,7.36043346 15.8940108,6.30690241 C16.8327234,5.25324715 18.1300623,4.72648162 19.7860276,4.72648162 C21.448807,4.72648162 22.7494268,5.25175665 23.6883918,6.30180989 C24.6271044,7.35211153 25.0965238,8.70572877 25.0965238,10.36291 L25.0965238,10.5776654 C25.0965238,12.2416781 24.6271044,13.5971584 23.6883918,14.643858 C22.749553,15.6906819 21.4556211,16.2139696 19.8068486,16.2139696 C18.1371289,16.2139696 16.8328496,15.6906819 15.894137,14.643858 C14.9552982,13.5970342 14.486005,12.2416781 14.486005,10.5776654 L14.486005,10.3627858 L14.4858788,10.3627858 Z M17.5205742,10.5775412 C17.5205742,11.5868542 17.7006445,12.3966895 18.0609113,13.0070469 C18.4210519,13.6174043 19.003031,13.922583 19.8068486,13.922583 C20.589719,13.922583 21.1631173,13.6156654 21.5267912,13.0019544 C21.8905912,12.3882433 22.0724281,11.580147 22.0724281,10.5775412 L22.0724281,10.3627858 C22.0724281,9.38079848 21.8888246,8.57953359 21.5216175,7.95886692 C21.1542842,7.33844867 20.5758383,7.02805323 19.7861538,7.02805323 C18.996343,7.02805323 18.4211781,7.33844867 18.0610375,7.95886692 C17.7007707,8.57953359 17.5207004,9.38079848 17.5207004,10.3627858 L17.5207004,10.5775412 L17.5205742,10.5775412 Z"></path>
                                        <path d="M34.2435141,14.6488264 C33.8901876,15.1601901 33.4727577,15.5489607 32.9912243,15.8150139 C32.5095646,16.080943 31.9606468,16.2138454 31.343966,16.2138454 C29.9582954,16.2138454 28.8826688,15.7161445 28.1170862,14.7204943 C27.3515035,13.7248441 26.9687753,12.4086134 26.9687753,10.7720507 L26.9687753,10.5571711 C26.9687753,8.81155387 27.3532702,7.40316096 28.1223861,6.33248923 C28.8913758,5.2619417 29.9721761,4.72648162 31.364787,4.72648162 C31.9259451,4.72648162 32.4317066,4.84758428 32.8820716,5.08954119 C33.3323105,5.33174651 33.7272789,5.67431179 34.0668509,6.11760963 L34.0668509,2.14867174 L32.4455873,1.84175412 L32.4455873,0.0413612167 L34.0668509,0.0413612167 L37.1014201,0.0413612167 L37.1014201,13.9020887 L38.5563679,14.2090063 L38.5563679,15.9992142 L34.4721667,15.9992142 L34.2435141,14.6488264 Z M30.0034708,10.7720507 C30.0034708,11.7404994 30.1680199,12.5025146 30.4971182,13.0582205 C30.8260904,13.6140507 31.364787,13.8919037 32.1130819,13.8919037 C32.5563804,13.8919037 32.9410014,13.8033435 33.2666927,13.6258504 C33.5922578,13.4486058 33.8590192,13.1928619 34.066977,12.8586185 L34.066977,8.16343726 C33.8591454,7.80894804 33.5940244,7.53432446 33.2719926,7.33993916 C32.9498346,7.14555387 32.5705134,7.04842332 32.1340291,7.04842332 C31.3925484,7.04842332 30.8522113,7.37235741 30.5127656,8.0202256 C30.1731936,8.668218 30.0034708,9.51370089 30.0034708,10.5570469 L30.0034708,10.7720507 L30.0034708,10.7720507 Z"></path>
                                        <path d="M47.1941895,15.9992142 C47.1109054,15.8151381 47.0382212,15.6258454 46.9758843,15.4314601 C46.9135474,15.2370748 46.864965,15.0410748 46.8305157,14.8433359 C46.4702489,15.2524766 46.0317456,15.5833663 45.515889,15.8355082 C44.9995277,16.0877744 44.409094,16.2139696 43.743957,16.2139696 C42.6423356,16.2139696 41.7676004,15.9192243 41.1198773,15.329237 C40.4719019,14.7394981 40.1481034,13.9363701 40.1481034,12.9201014 C40.1481034,11.8835868 40.5707071,11.0823219 41.4160406,10.5161825 C42.2612479,9.9501673 43.5012974,9.6672218 45.1365678,9.6672218 L46.6848947,9.6672218 L46.6848947,8.5828872 C46.6848947,8.05090494 46.5291787,7.63841065 46.2173682,7.34515589 C45.9055576,7.05202535 45.444719,6.90533587 44.8352309,6.90533587 C44.4887186,6.90533587 44.1804413,6.94458555 43.9101466,7.02296071 C43.639978,7.10146008 43.4216728,7.19523701 43.2554832,7.30429151 L43.0579989,8.49084918 L40.7715984,8.49084918 L40.782072,6.03575665 C41.3362897,5.66748035 41.9720249,5.35733333 42.6890252,5.10481876 C43.4061517,4.85267681 44.1872554,4.72635741 45.0325889,4.72635741 C46.4250736,4.72635741 47.5560967,5.06233967 48.4256583,5.73393156 C49.2952199,6.40577186 49.7299376,7.36217237 49.7299376,8.60325729 L49.7299376,13.1758454 C49.7299376,13.3463828 49.7317042,13.5066109 49.7351113,13.6565298 C49.7385184,13.8065729 49.7506324,13.9497845 49.7715796,14.0861648 L50.6965378,14.2088821 L50.6965378,15.99909 L47.1941895,15.99909 L47.1941895,15.9992142 Z M44.5646838,14.0043118 C45.0221153,14.0043118 45.4376524,13.9073054 45.8117999,13.7127959 C46.1859473,13.5182864 46.4769369,13.2747148 46.6847685,12.9813359 L46.6847685,11.2934753 L45.1364417,11.2934753 C44.4919995,11.2934753 44.0033995,11.4417795 43.6710203,11.738512 C43.3385149,12.0351204 43.1721991,12.391597 43.1721991,12.8074449 C43.1721991,13.1825526 43.2951062,13.4758074 43.5411728,13.6870849 C43.7869871,13.8987351 44.1281995,14.0043118 44.5646838,14.0043118 Z"></path>
                                        <path d="M52.1422738,14.2088821 L53.607569,13.9019645 L53.607569,7.03811407 L51.9863054,6.73119645 L51.9863054,4.93080355 L56.6421382,4.93080355 L56.6421382,13.9019645 L58.097086,14.2088821 L58.097086,15.99909 L52.1422738,15.99909 L52.1422738,14.2088821 Z M56.6422644,2.28157414 L53.6076951,2.28157414 L53.6076951,0.0413612167 L56.6422644,0.0413612167 L56.6422644,2.28157414 Z"></path>
                                        <path d="M68.7823081,8.7362839 L66.7453812,8.7362839 L66.4232232,7.35534094 C66.2153916,7.19163498 65.9536777,7.05525475 65.63846,6.94620025 C65.3231162,6.83726996 64.9749635,6.7826185 64.594128,6.7826185 C64.0604789,6.7826185 63.6380015,6.90024335 63.3261909,7.13549303 C63.0143803,7.37074271 62.8585382,7.66586058 62.8585382,8.02034981 C62.8585382,8.35459316 63.0075662,8.63257034 63.3054961,8.85403295 C63.6031736,9.07574398 64.1991596,9.27186819 65.0929492,9.44215716 C66.4855601,9.71504183 67.517778,10.1157364 68.1898554,10.6441166 C68.8618065,11.1727452 69.1978452,11.9007275 69.1978452,12.8280634 C69.1978452,13.823962 68.7631275,14.6370266 67.8936921,15.2678783 C67.0240044,15.8986058 65.8791005,16.2139696 64.4589807,16.2139696 C63.5928262,16.2139696 62.7977155,16.0895133 62.0739011,15.8406008 C61.3498343,15.5916882 60.707285,15.2355843 60.1461269,14.7717921 L60.1149584,12.2858961 L62.2350432,12.2858961 L62.6508327,13.7283219 C62.830903,13.878365 63.0768434,13.9891584 63.388654,14.0607022 C63.7004646,14.1322459 64.0260296,14.168142 64.3656016,14.168142 C64.9821562,14.168142 65.4514494,14.0590875 65.7737336,13.84073 C66.0958915,13.6224968 66.2569074,13.3258885 66.2569074,12.9507807 C66.2569074,12.623493 66.0941249,12.3405475 65.7685599,12.1016958 C65.4427424,11.8630925 64.8436017,11.6516907 63.9706331,11.4676147 C62.6472994,11.2016857 61.6478904,10.8078226 60.972406,10.2861496 C60.2967954,9.76447655 59.9591162,9.05351077 59.9591162,8.15337643 C59.9591162,7.22604056 60.3470182,6.42639037 61.1232006,5.75467427 C61.8990045,5.08308238 63.0041591,4.74710013 64.4382858,4.74710013 C65.3112545,4.74710013 66.1374074,4.86311027 66.9168707,5.09488213 C67.6963341,5.3267782 68.3075888,5.62338657 68.7511397,5.98483143 L68.7823081,8.7362839 Z"></path>
                                        <path d="M80.246615,8.7362839 L78.2096881,8.7362839 L77.8875301,7.35534094 C77.6796985,7.19163498 77.4179846,7.05525475 77.1027669,6.94620025 C76.7874231,6.83726996 76.4392703,6.7826185 76.0584349,6.7826185 C75.5247858,6.7826185 75.1023084,6.90024335 74.7904978,7.13549303 C74.4786872,7.37074271 74.322845,7.66586058 74.322845,8.02034981 C74.322845,8.35459316 74.4718731,8.63257034 74.769803,8.85403295 C75.0674805,9.07574398 75.6634665,9.27186819 76.5572561,9.44215716 C77.949867,9.71504183 78.9820849,10.1157364 79.6541623,10.6441166 C80.3261134,11.1727452 80.6621521,11.9007275 80.6621521,12.8280634 C80.6621521,13.823962 80.2274344,14.6370266 79.357999,15.2678783 C78.4883113,15.8986058 77.3434074,16.2139696 75.9232876,16.2139696 C75.0571331,16.2139696 74.2620224,16.0895133 73.538208,15.8406008 C72.8141412,15.5916882 72.1715919,15.2355843 71.6104338,14.7717921 L71.5792653,12.2858961 L73.6993501,12.2858961 L74.1151396,13.7283219 C74.2952099,13.878365 74.5411503,13.9891584 74.8529609,14.0607022 C75.1647714,14.1322459 75.4903365,14.168142 75.8299084,14.168142 C76.4464631,14.168142 76.9157563,14.0590875 77.2380405,13.84073 C77.5601984,13.6224968 77.7212143,13.3258885 77.7212143,12.9507807 C77.7212143,12.623493 77.5584318,12.3405475 77.2328667,12.1016958 C76.9070493,11.8630925 76.3079086,11.6516907 75.43494,11.4676147 C74.1116063,11.2016857 73.1121973,10.8078226 72.4367129,10.2861496 C71.7611023,9.76447655 71.4234231,9.05351077 71.4234231,8.15337643 C71.4234231,7.22604056 71.8113251,6.42639037 72.5875075,5.75467427 C73.3633114,5.08308238 74.468466,4.74710013 75.9025927,4.74710013 C76.7755614,4.74710013 77.6017143,4.86311027 78.3811776,5.09488213 C79.160641,5.3267782 79.7718957,5.62338657 80.2154465,5.98483143 L80.246615,8.7362839 Z"></path>
                                        <path d="M87.9178365,16.2138454 C86.2965729,16.2138454 85.0010006,15.7024816 84.0309934,14.6793815 C83.06086,13.6565298 82.5760456,12.3574398 82.5760456,10.7821115 L82.5760456,10.3728466 C82.5760456,8.72945247 83.0349914,7.37571103 83.9530092,6.31187072 C84.8709008,5.24803042 86.1024958,4.71965019 87.6475418,4.72635741 C89.1648264,4.72635741 90.3425391,5.17648669 91.1809322,6.07662104 C92.0191992,6.97675539 92.4383958,8.1941166 92.4383958,9.72845627 L92.4383958,11.354834 L85.7249412,11.354834 L85.7042464,11.4161926 C85.7595168,12.146038 86.0070976,12.7460862 86.4472414,13.2165856 C86.8871328,13.6870849 87.4847592,13.9224588 88.2399945,13.9224588 C88.9119456,13.9224588 89.4696966,13.8560076 89.9132475,13.7231052 C90.356546,13.5900786 90.8414865,13.3802915 91.3680691,13.0939924 L92.1890482,14.9352497 C91.7248026,15.2968188 91.1238953,15.6001343 90.386074,15.8455691 C89.6481265,16.091128 88.8253807,16.2138454 87.9178365,16.2138454 Z M87.647668,7.02805323 C87.0865099,7.02805323 86.642959,7.23945501 86.317394,7.66225856 C85.9917027,8.08518631 85.7908114,8.64089227 85.71472,9.32962484 L85.7458885,9.38079848 L89.4662896,9.38079848 L89.4662896,9.11486946 C89.4662896,8.48066413 89.3156211,7.97426869 89.0142841,7.59580735 C88.7128209,7.2172218 88.2572822,7.02805323 87.647668,7.02805323 Z"></path>
                                        <path d="M102.250523,14.5976527 C101.890256,15.1159721 101.445065,15.5149278 100.915075,15.7945196 C100.385086,16.0741115 99.7806451,16.2138454 99.1016274,16.2138454 C97.9168482,16.2138454 96.988483,15.8404766 96.3165319,15.0937389 C95.6444545,14.3470013 95.308542,13.1860304 95.308542,11.6105779 L95.308542,7.03811407 L94.0717734,6.73119645 L94.0717734,4.93080355 L95.308542,4.93080355 L98.3431113,4.93080355 L98.3431113,11.6310722 C98.3431113,12.435815 98.4797729,13.0136299 98.7536009,13.3648897 C99.0271765,13.7161496 99.4343852,13.8916553 99.9747223,13.8916553 C100.452849,13.8916553 100.866619,13.8148948 101.216665,13.6614981 C101.566332,13.5079772 101.852274,13.2880051 102.074112,13.001706 L102.074112,7.03798986 L100.743838,6.73107224 L100.743838,4.93067934 L102.074112,4.93067934 L105.108681,4.93067934 L105.108681,13.9018403 L106.469998,14.2087579 L106.469998,15.9989658 L102.448133,15.9989658 L102.250523,14.5976527 Z"></path>
                                        <path d="M108.40446,14.2088821 L109.859408,13.9019645 L109.859408,7.03811407 L108.248492,6.73119645 L108.248492,4.93080355 L112.686145,4.93080355 L112.821166,6.5469962 C113.084395,5.97414956 113.42384,5.52762231 113.83963,5.20691762 C114.255293,4.88646134 114.7367,4.726109 115.284104,4.726109 C115.443479,4.726109 115.611436,4.73803295 115.788099,4.76188086 C115.964762,4.78585298 116.111771,4.81479341 116.229757,4.84882636 L115.907599,7.56984791 L114.660483,7.53916857 C114.216932,7.53916857 113.849851,7.62449937 113.558988,7.79491255 C113.267872,7.96544994 113.04616,8.20753105 112.893851,8.52115589 L112.893851,13.9017161 L114.348798,14.2086337 L114.348798,15.9988416 L108.404334,15.9988416 L108.404334,14.2088821 L108.40446,14.2088821 Z"></path>
                                    </g>
                                </g>
                            </g>
                        </g>
                    </g>
                </g>
            </g>
        </g>
    </g>
</svg>